<svg xmlns="http://www.w3.org/2000/svg" viewBox="0 0 500 500"><defs><style>.cls-1{fill:#775fe3;}</style></defs><g id="Layer_2" data-name="Layer 2"><path class="cls-1" d="M197.75,316.9l.76-127.7q0-31-.76-54.78t-1.51-38.16c-.51-9.56-1-15.12-1.51-16.63l-47.6-12.09,2.26-34.76H379.1q14.34,0,32.87-.37t37-1.51q18.5-1.14,32.11-1.89L500,137.06l-40.8,5.29-28-65a154.38,154.38,0,0,0-15.49-2.27c-5.29-.49-10.72-.76-16.25-.76H333c-8.07,0-16.38.27-24.94.76a181.73,181.73,0,0,0-21.15,2.27c0,2-.14,5.17-.38,9.44s-.38,10-.38,17V131l-.11,98.49c7.3.51,10.93.5,19,.5h49.87q15.1,0,25.69-.75c7-.5,12.09-1,15.11-1.52L404,177.11h40V331.25H404l-8.32-53.64A147.81,147.81,0,0,0,378,275.34c-6.8-.49-14.5-.76-23.05-.76H305.05c-8.07,0-11.63,0-18.43.52l1.05,107.16q.74,19.26,1.51,32.11t1.51,15.87l61.21,9.82-2.27,36.27H216.48l-18-10.93Z"/><path class="cls-1" d="M202.3,428.48q-17,26.44-36.84,37.15t-40.61,10.7a118.84,118.84,0,0,1-62.34-17,123.83,123.83,0,0,1-45-46.91Q.78,382.53.8,342.84q0-35.25,12.59-63.28A140.32,140.32,0,0,1,47.71,232a158.05,158.05,0,0,1,48.17-29.91,145.17,145.17,0,0,1,53.52-10.39,147.5,147.5,0,0,1,28.34,2.83q14.47,2.83,23.93,8.5ZM137.23,440q12.59,0,26.45-6.92c9.22-4.62,26-15.42,34-26.34V276.23c-6.72-10.07-22.88-21.52-32.1-25.72a66.52,66.52,0,0,0-27.71-6.3q-32.76,0-53.21,25.82T64.19,340.55q0,47.86,21.41,73.67T137.23,440Z"/></g></svg>