<svg xmlns="http://www.w3.org/2000/svg" viewBox="0 0 500 500"><defs><style>.cls-1{fill:#775fe3;}</style></defs><g id="Layer_2" data-name="Layer 2"><path class="cls-1" d="M195.82,314l.75-127.23q0-30.85-.75-54.58t-1.5-38q-.78-14.3-1.51-16.56l-47.43-12,2.26-34.63H376.51q14.28,0,32.74-.38T446.14,29q18.44-1.12,32-1.88L497,134.81l-40.65,5.27L428.45,75.34c-5-1-10.16-1.75-15.43-2.26s-10.68-.75-16.19-.75H330.58q-12.06,0-24.84.75a182.8,182.8,0,0,0-21.08,2.26c0,2-.14,5.15-.38,9.41s-.38,9.92-.38,16.94v27.1l-.1,98.12c7.27.51,10.89.5,18.93.5h49.68q15,0,25.6-.75c7-.49,12.05-1,15.06-1.5l8.28-50.44h39.9V328.3h-39.9l-8.28-53.46a149.62,149.62,0,0,0-17.69-2.25q-10.17-.75-23-.76H302.73c-8,0-11.59,0-18.36.52l1,106.76q.73,19.2,1.51,32t1.5,15.81l61,9.79-2.26,36.13H214.48L196.55,462Z"/><path class="cls-1" d="M203.8,425.16q-16.94,26.35-36.7,37t-40.47,10.66A118.41,118.41,0,0,1,64.52,455.9a123.46,123.46,0,0,1-44.86-46.74Q3,379.37,3,339.84q0-35.13,12.55-63a139.74,139.74,0,0,1,34.19-47.37,157.71,157.71,0,0,1,48-29.8,144.76,144.76,0,0,1,53.33-10.35,147.16,147.16,0,0,1,28.23,2.82q14.41,2.83,23.84,8.47ZM139,436.69q12.54,0,26.35-6.91c9.19-4.59,22.47-15.35,30.42-26.23V273.48c-6.7-10-19.34-21.45-28.54-25.63a66.32,66.32,0,0,0-27.6-6.28q-32.64,0-53,25.72T66.2,337.56q0,47.69,21.33,73.4T139,436.69Z"/></g></svg>